<svg width="186" height="168" viewBox="0 0 186 168" fill="#fff" xmlns="http://www.w3.org/2000/svg"><g filter="url(#filter0_d_1437_19495)"><path fill-rule="evenodd" clip-rule="evenodd" d="M111.169 142.487C150.696 142.487 182.74 110.59 182.74 71.2433C182.74 31.8966 150.696 0 111.169 0H74.5825C35.0557 0 3.01172 31.8966 3.01172 71.2433C3.01172 79.6022 4.45698 87.625 7.11441 95.0772C8.95057 100.226 9.4376 101.203 10.3417 103.017C10.746 103.828 11.2338 104.806 11.963 106.4C12.278 107.088 12.6023 107.776 12.928 108.467C12.9719 108.561 13.0158 108.654 13.0597 108.747C15.1317 113.141 17.2121 117.554 17.2121 122.92V123.463C17.213 129.833 15.7923 136.015 14.5263 141.524C13.9805 143.899 13.4635 146.148 13.1016 148.234L12.9517 148.866C11.963 153.042 12.8863 160.335 21.3806 161.286C29.8748 162.237 35.5553 161.709 43.9965 160.018C52.4377 158.327 61.4098 148.733 61.4098 148.733C67.4368 143.461 74.9141 142.108 84.5656 142.38C85.4056 142.404 86.2621 142.44 87.1356 142.487C88.8022 142.47 90.5542 142.462 92.3979 142.462H92.433L92.4138 142.445L111.169 142.487Z" fill="var(--Site-contrastedBackgroundColor)"></path></g><defs><filter id="filter0_d_1437_19495" x="0.0162437" y="0" width="185.718" height="167.747" filterUnits="userSpaceOnUse" color-interpolation-filters="sRGB"><feFlood flood-opacity="0" result="BackgroundImageFix"></feFlood><feColorMatrix in="SourceAlpha" type="matrix" values="0 0 0 0 0 0 0 0 0 0 0 0 0 0 0 0 0 0 127 0" result="hardAlpha"></feColorMatrix><feOffset dy="2.99548"></feOffset><feGaussianBlur stdDeviation="1.49774"></feGaussianBlur><feComposite in2="hardAlpha" operator="out"></feComposite><feColorMatrix type="matrix" values="0 0 0 0 0 0 0 0 0 0 0 0 0 0 0 0 0 0 0.05 0"></feColorMatrix><feBlend mode="normal" in2="BackgroundImageFix" result="effect1_dropShadow_1437_19495"></feBlend><feBlend mode="normal" in="SourceGraphic" in2="effect1_dropShadow_1437_19495" result="shape"></feBlend></filter></defs></svg>