<svg width="218" height="295" viewBox="0 0 218 295" fill="none" xmlns="http://www.w3.org/2000/svg">
<circle cx="61.6125" cy="17" r="4" fill="#0EADCF"/>
<circle cx="38.6125" cy="38" r="4" fill="#0EADCF"/>
<circle cx="9.61255" cy="66" r="4" fill="#0EADCF"/>
<circle cx="57.6125" cy="62" r="4" fill="#0EADCF"/>
<circle cx="66.6125" cy="91" r="4" fill="#0EADCF"/>
<circle cx="6.61255" cy="98" r="4" fill="#0EADCF"/>
<circle cx="3.61255" cy="125" r="4" fill="#0EADCF"/>
<circle cx="86.6125" cy="41" r="4" fill="#0EADCF"/>
<circle cx="127.612" cy="21" r="4" fill="#0EADCF"/>
<circle cx="151.612" cy="4" r="4" fill="#0EADCF"/>
<circle cx="156.612" cy="19" r="4" fill="#0EADCF"/>
<circle cx="179.612" cy="8" r="4" fill="#0EADCF"/>
<circle cx="179.612" cy="41" r="4" fill="#0EADCF"/>
<circle cx="150.612" cy="35" r="4" fill="#0EADCF"/>
<circle cx="166.612" cy="53" r="4" fill="#0EADCF"/>
<circle cx="176.612" cy="62" r="4" fill="#0EADCF"/>
<circle cx="143.612" cy="73" r="4" fill="#0EADCF"/>
<circle cx="107.612" cy="84" r="4" fill="#0EADCF"/>
<circle cx="202.612" cy="52" r="4" fill="#0EADCF"/>
<circle cx="205.612" cy="87" r="4" fill="#0EADCF"/>
<circle cx="175.612" cy="99" r="4" fill="#0EADCF"/>
<circle cx="204.612" cy="122" r="4" fill="#0EADCF"/>
<circle cx="183.612" cy="127" r="4" fill="#0EADCF"/>
<circle cx="161.612" cy="145" r="4" fill="#0EADCF"/>
<circle cx="117.612" cy="128" r="4" fill="#0EADCF"/>
<circle cx="82.6125" cy="146" r="4" fill="#0EADCF"/>
<circle cx="52.6125" cy="135" r="4" fill="#0EADCF"/>
<circle cx="41.6125" cy="149" r="4" fill="#0EADCF"/>
<circle cx="46.6125" cy="182" r="4" fill="#0EADCF"/>
<circle cx="3.61255" cy="185" r="4" fill="#0EADCF"/>
<circle cx="38.6125" cy="235" r="4" fill="#0EADCF"/>
<circle cx="66.6125" cy="216" r="4" fill="#0EADCF"/>
<circle cx="88.6124" cy="203" r="4" fill="#0EADCF"/>
<circle cx="116.612" cy="185" r="4" fill="#0EADCF"/>
<circle cx="133.612" cy="163" r="4" fill="#0EADCF"/>
<circle cx="156.612" cy="182" r="4" fill="#0EADCF"/>
<circle cx="130.612" cy="199" r="4" fill="#0EADCF"/>
<circle cx="109.612" cy="213" r="4" fill="#0EADCF"/>
<circle cx="61.6125" cy="259" r="4" fill="#0EADCF"/>
<circle cx="100.612" cy="236" r="4" fill="#0EADCF"/>
<circle cx="143.612" cy="213" r="4" fill="#0EADCF"/>
<circle cx="154.612" cy="226" r="4" fill="#0EADCF"/>
<circle cx="136.612" cy="239" r="4" fill="#0EADCF"/>
<circle cx="120.612" cy="250" r="4" fill="#0EADCF"/>
<circle cx="105.612" cy="262" r="4" fill="#0EADCF"/>
<circle cx="87.6124" cy="277" r="4" fill="#0EADCF"/>
<circle cx="102.612" cy="291" r="4" fill="#0EADCF"/>
<circle cx="139.612" cy="266" r="4" fill="#0EADCF"/>
<circle cx="170.612" cy="241" r="4" fill="#0EADCF"/>
<circle cx="183.612" cy="203" r="4" fill="#0EADCF"/>
<circle cx="197.612" cy="193" r="4" fill="#0EADCF"/>
<circle cx="213.612" cy="174" r="4" fill="#0EADCF"/>
<circle cx="179.612" cy="166" r="4" fill="#0EADCF"/>
<circle cx="197.612" cy="152" r="4" fill="#0EADCF"/>
<circle cx="142.612" cy="114" r="4" fill="#0EADCF"/>
<circle cx="132.612" cy="111" r="4" fill="#0EADCF"/>
<circle cx="83.6125" cy="96" r="4" fill="#0EADCF"/>
</svg>
