<svg width="275" height="396" viewBox="0 0 275 396" fill="none" xmlns="http://www.w3.org/2000/svg">
<path d="M12.6483 197.226V85.1829C14.441 74.7256 24.6593 51.122 51.191 40.3659L121.912 6.59911L125.372 28.5114L160.547 6.59911L165.16 28.5114L194.568 6.59911L198.028 28.5114L228.014 6.59911V52.7303C239.739 51.6842 262.958 56.7103 262.035 85.1829V197.226M262.035 197.226C270.493 211.338 277.489 242.099 237.816 252.248C237.624 261.666 236.317 281.656 232.627 286.269L195.222 321.495M262.035 197.226C259.074 191.036 242.976 184.823 235.297 182.491V204.963C242.186 167.136 225.045 144.224 215.613 137.496L191.418 143.533C172.718 148.362 151.513 141.521 143.247 137.496C91.5806 106.127 67.5155 110.202 61.9413 116.161C38.4144 130.923 36.7614 181.513 38.8757 204.963V185.357C9.35174 185.819 5.04619 210.537 6.58391 222.839C9.35178 243.33 29.2651 250.983 38.8757 252.248C32.4174 283.156 51.5618 302.031 61.9413 307.605C67.8248 312.821 73.168 317.43 78.0138 321.495M152.906 349.123C164.438 348.662 171.118 344.318 173.233 342.203L195.222 321.495M152.906 349.123L137.533 364.429L128.39 356.742M152.906 349.123C166.031 329.754 147.005 328.347 136.067 330.065C117.457 327.645 115.407 334.64 116.709 338.44L121.335 349.123M121.335 349.123L128.39 356.742M121.335 349.123C120.334 351.46 101.508 349.8 78.0138 321.495M70.8526 179.21H109.811M163.122 179.21H203.31M77.0039 204.963H104.89M169.273 204.963H197.159M129.905 244.824H143.872M116.709 277.727H156.738M128.39 304.01H145.838M128.39 356.742L121.689 349.505H115.826L106.404 345.957L95.1049 338.44L85.7437 330.065L78.0138 321.495M78.0138 321.495C77.0826 334.617 73.5732 363.88 66.9851 375.958C60.3969 388.036 68.2661 389.775 73.0242 389.134H203.14C207.166 388.585 213.681 385.181 207.532 375.958C201.383 366.734 196.763 335.806 195.222 321.495" stroke="#0EADCF" stroke-width="8" stroke-linecap="round" stroke-linejoin="round"/>
</svg>
