<svg width="216" height="292" viewBox="0 0 216 292" fill="none" xmlns="http://www.w3.org/2000/svg">
<path d="M178.767 6.25V40.75L201.767 50.75L206.767 85.25V120.75L197.267 151.25L214.267 170.75L197.267 189.75L182.767 201.75L169.767 240.25L138.767 263.25L101.767 289.75L86.7666 275.75L60.7666 256.75L37.2666 232.75L1.2666 182.75M1.2666 182.75L3.7666 123.25V95.25L8.2666 63.25L37.2666 34.75L60.7666 15.75L149.767 1.25L154.267 15.75L180.767 3.25L149.767 31.75L126.267 19.25L60.7666 13.75L86.2666 38.25L81.2666 93.75L56.7666 58.75L39.2666 38.25L9.7666 64.25L165.267 50.75L204.767 48.25L175.767 60.25L143.767 69.75L104.767 82.25L148.767 35.75L201.767 85.25L140.767 111.75L180.767 124.75L65.2666 87.25L8.2666 95.25L52.2666 133.25L81.2666 143.75L115.767 125.75H183.767L194.267 148.25L107.767 211.25L44.7666 180.75L39.7666 146.75L4.7666 182.75L65.2666 214.25L115.767 182.615L132.767 160.25M1.2666 182.75L26.7666 108.75L84.2666 96.75L82.2666 146.75L167.267 237.75L39.7666 230.75L41.7666 178.75L132.767 160.25M132.767 160.25L178.91 200.477L142.514 211.25L63.2666 253.75L135.767 261.25L88.7666 272.25L194.267 188.25L132.767 105.25L142.267 73.25L201.767 119.25L132.767 160.25Z" stroke="#0EADCF" stroke-width="2"/>
</svg>
